<svg version="1.1" xmlns="http://www.w3.org/2000/svg" viewBox="0 0 2075.3693181475364 770.6966984576495" width="2075.3693181475364" height="770.6966984576495" filter="invert(93%) hue-rotate(180deg)">
  <!-- svg-source:excalidraw -->
  
  <defs>
    <style class="style-fonts">
      @font-face {
        font-family: "Virgil";
        src: url("https://excalidraw.com/Virgil.woff2");
      }
      @font-face {
        font-family: "Cascadia";
        src: url("https://excalidraw.com/Cascadia.woff2");
      }
      @font-face {
        font-family: "Assistant";
        src: url("https://excalidraw.com/Assistant-Regular.woff2");
      }
    </style>
    
  </defs>
  <g stroke-opacity="0" fill-opacity="0" stroke-linecap="round" transform="translate(10 427.85599527523254) rotate(0 79.47004622860163 79.47004622860152)"><path d="M54.41 4.22 C63.71 -0.1, 76.45 -0.52, 87.17 0.43 C97.88 1.38, 109.28 4.5, 118.69 9.93 C128.1 15.36, 137.1 24.31, 143.64 33.01 C150.18 41.72, 155.78 51.63, 157.93 62.17 C160.09 72.71, 158.89 85.64, 156.57 96.24 C154.26 106.84, 150.24 117.24, 144.02 125.78 C137.8 134.33, 128.7 142.2, 119.26 147.52 C109.82 152.85, 98.27 156.6, 87.39 157.74 C76.51 158.88, 64.19 157.69, 53.97 154.36 C43.75 151.04, 34.01 144.81, 26.06 137.79 C18.12 130.76, 10.63 121.9, 6.3 112.2 C1.97 102.5, 0.14 90.55, 0.08 79.57 C0.03 68.59, 1.73 56.12, 5.99 46.32 C10.25 36.53, 17.07 28.02, 25.65 20.81 C34.23 13.6, 51.55 5.9, 57.49 3.07 C63.42 0.24, 60.72 2.61, 61.26 3.83 M51.2 5.47 C60.24 1.21, 73.97 0.31, 84.99 1.19 C96 2.08, 107.86 6.07, 117.29 10.79 C126.71 15.51, 134.91 21.21, 141.54 29.49 C148.16 37.78, 154.23 49.89, 157.05 60.51 C159.87 71.13, 160.57 82.46, 158.47 93.22 C156.36 103.98, 150.63 116.26, 144.42 125.09 C138.21 133.93, 130.34 140.69, 121.23 146.23 C112.12 151.77, 100.4 156.71, 89.77 158.33 C79.14 159.94, 67.82 158.68, 57.44 155.91 C47.05 153.14, 35.76 148.84, 27.44 141.71 C19.13 134.59, 12.22 122.95, 7.52 113.16 C2.83 103.36, -0.68 93.5, -0.74 82.94 C-0.79 72.38, 2.78 60.02, 7.2 49.79 C11.63 39.56, 18.28 29.23, 25.8 21.57 C33.32 13.91, 47.55 6.57, 52.3 3.84 C57.06 1.1, 53.78 3.51, 54.32 5.15" stroke="#1e1e1e" stroke-width="1" fill="none"></path></g><g stroke-linecap="round" transform="translate(50.51941608486868 451.3973956180307) rotate(0 39.57328675349072 26.382191168993813)"><path d="M13.19 0 C27.97 0.67, 42.79 1.11, 65.96 0 M13.19 0 C23.97 0.12, 36.47 1.05, 65.96 0 M65.96 0 C72.81 -1.18, 79.26 5.15, 79.15 13.19 M65.96 0 C73.47 0.51, 77.15 3.96, 79.15 13.19 M79.15 13.19 C78.77 17.8, 77.97 26.03, 79.15 39.57 M79.15 13.19 C78.58 20.54, 79.75 29.3, 79.15 39.57 M79.15 39.57 C79.18 49.7, 74.59 54.57, 65.96 52.76 M79.15 39.57 C78.42 46.76, 76.13 50.9, 65.96 52.76 M65.96 52.76 C55.49 53.35, 44.31 51.95, 13.19 52.76 M65.96 52.76 C54.48 52.77, 41.41 53.6, 13.19 52.76 M13.19 52.76 C3.99 51.87, -0.94 48.57, 0 39.57 M13.19 52.76 C4.29 52.86, -1.38 50.51, 0 39.57 M0 39.57 C1.2 34.39, 0.39 27.48, 0 13.19 M0 39.57 C0.96 32.13, 0.31 27.12, 0 13.19 M0 13.19 C-1.76 5.1, 3.8 1.21, 13.19 0 M0 13.19 C-2.24 4.44, 2.56 -1.91, 13.19 0" stroke="#1e1e1e" stroke-width="1" fill="none"></path></g><g stroke-linecap="round" transform="translate(42.97066558138613 510.03473659620295) rotate(0 46.49938064721539 6.36493423307877)"><path d="M3.18 0 C23.08 0.32, 43.56 -0.1, 89.82 0 M3.18 0 C23.32 0.45, 42.87 -0.19, 89.82 0 M89.82 0 C92 0.38, 92.44 1.28, 93 3.18 M89.82 0 C90.94 -0.22, 92.09 0.19, 93 3.18 M93 3.18 C92.84 4.88, 93.02 6.3, 93 9.55 M93 3.18 C93.06 4.46, 92.98 5.89, 93 9.55 M93 9.55 C92.92 12.57, 91.62 12.03, 89.82 12.73 M93 9.55 C93.69 10.74, 91.06 13.26, 89.82 12.73 M89.82 12.73 C65.28 12.47, 38.07 13.17, 3.18 12.73 M89.82 12.73 C62.31 13.08, 35.3 12.48, 3.18 12.73 M3.18 12.73 C0.59 12.83, -0.05 11.71, 0 9.55 M3.18 12.73 C0.37 13.8, -0.38 10.83, 0 9.55 M0 9.55 C0.01 8.29, -0.16 6.38, 0 3.18 M0 9.55 C0.02 8.18, -0.17 6.58, 0 3.18 M0 3.18 C-0.3 1.66, 0.08 0.02, 3.18 0 M0 3.18 C-0.92 0.1, 2.17 1.05, 3.18 0" stroke="#1e1e1e" stroke-width="1" fill="none"></path></g><g stroke-linecap="round" transform="translate(111.535649608614 514.6963785697255) rotate(0 8.332186988999297 1.6061747184413662)"><path d="M0.8 0 C4.97 -0.05, 9.83 -0.64, 15.86 0 M0.8 0 C4.59 -0.27, 9.13 0.09, 15.86 0 M15.86 0 C15.84 0.22, 15.8 0.08, 16.66 0.8 M15.86 0 C15.49 -0.87, 15.94 0.17, 16.66 0.8 M16.66 0.8 C16.67 1.21, 16.58 1.52, 16.66 2.41 M16.66 0.8 C16.67 1.18, 16.67 1.55, 16.66 2.41 M16.66 2.41 C16.35 2.25, 16.99 2.4, 15.86 3.21 M16.66 2.41 C15.79 3.48, 16.33 3.98, 15.86 3.21 M15.86 3.21 C10.33 3.41, 6.01 3.56, 0.8 3.21 M15.86 3.21 C11.37 3.1, 6.86 3.31, 0.8 3.21 M0.8 3.21 C0.22 3.25, -0.6 3.88, 0 2.41 M0.8 3.21 C-0.11 2.37, -0.6 3.52, 0 2.41 M0 2.41 C-0.04 1.78, -0.05 1.22, 0 0.8 M0 2.41 C-0.04 2.06, -0.01 1.71, 0 0.8 M0 0.8 C-0.98 0.28, -0.53 -0.83, 0.8 0 M0 0.8 C1.11 1.32, 0.39 -0.67, 0.8 0" stroke="#1e1e1e" stroke-width="1" fill="none"></path></g><g stroke-linecap="round" transform="translate(82.0119171096378 504.9846244582193) rotate(0 8.332186988999297 1.6061747184413662)"><path d="M0.8 0 C5.39 -0.61, 10.83 0.08, 15.86 0 M0.8 0 C6.38 0.19, 11.71 0.13, 15.86 0 M15.86 0 C15.53 -0.19, 15.88 -0.49, 16.66 0.8 M15.86 0 C15.67 -0.1, 15.96 -0.29, 16.66 0.8 M16.66 0.8 C16.59 1.33, 16.6 2, 16.66 2.41 M16.66 0.8 C16.66 1.3, 16.65 1.69, 16.66 2.41 M16.66 2.41 C17.26 2.13, 15.63 3.68, 15.86 3.21 M16.66 2.41 C16.6 3.71, 16.75 4.33, 15.86 3.21 M15.86 3.21 C12.04 3.61, 7.96 2.78, 0.8 3.21 M15.86 3.21 C10.03 3.22, 4.53 3.19, 0.8 3.21 M0.8 3.21 C-0.33 4.15, -0.33 2.21, 0 2.41 M0.8 3.21 C-0.33 3.79, 1.07 3.06, 0 2.41 M0 2.41 C-0.05 1.84, -0.06 1.15, 0 0.8 M0 2.41 C0 1.8, -0.03 1.14, 0 0.8 M0 0.8 C-0.8 -0.56, 1.23 0.91, 0.8 0 M0 0.8 C0.12 -0.4, 1.41 0.22, 0.8 0" stroke="#1e1e1e" stroke-width="1" fill="none"></path></g><g stroke-linecap="round" transform="translate(57.31654457524883 457.5017091370901) rotate(0 32.82667722440851 20.589942486112818)"><path d="M10.29 0 C23.21 0.56, 38.47 -1.57, 55.36 0 M10.29 0 C20.61 0.05, 31.16 -0.36, 55.36 0 M55.36 0 C60.64 -1.51, 64.4 3.26, 65.65 10.29 M55.36 0 C60.82 -1.12, 67 3.62, 65.65 10.29 M65.65 10.29 C63.88 18.14, 65.14 23.91, 65.65 30.88 M65.65 10.29 C65.32 17.14, 66.23 24.58, 65.65 30.88 M65.65 30.88 C64.12 38.68, 62.11 42.51, 55.36 41.18 M65.65 30.88 C66.36 39.99, 61.32 39.5, 55.36 41.18 M55.36 41.18 C40.33 40.2, 27.1 41, 10.29 41.18 M55.36 41.18 C43.8 41.27, 31.73 42.16, 10.29 41.18 M10.29 41.18 C2.77 39.71, -1.04 38.75, 0 30.88 M10.29 41.18 C5.57 41.4, 2.29 36.69, 0 30.88 M0 30.88 C-1.36 25.38, 2.01 16.89, 0 10.29 M0 30.88 C-0.91 24, -0.74 16.24, 0 10.29 M0 10.29 C1.92 5.26, 3.65 -1.16, 10.29 0 M0 10.29 C2.29 3.88, 5.71 -2.01, 10.29 0" stroke="#1e1e1e" stroke-width="1" fill="none"></path></g><g stroke-linecap="round"><g transform="translate(153.0573901033299 479.2074577032963) rotate(0 0 0)"><path d="M0.14 0.11 C0.19 0.11, 0.12 0.3, 0.11 0.31 M-0.21 -0.14 C-0.18 -0.07, -0.13 -0.11, -0.11 -0.15" stroke="#343a40" stroke-width="2" fill="none"></path></g></g><mask></mask><g transform="translate(38.74459420431526 532.5636496193954) rotate(0 55.361979520326145 18.896889009604593)"><text x="55.36197952032615" y="0" font-family="Cascadia, Segoe UI Emoji" font-size="31.494815016007767px" fill="#343a40" text-anchor="middle" style="white-space: pre;" direction="ltr" dominant-baseline="text-before-edge">client</text></g><g stroke-opacity="0" fill-opacity="0" stroke-linecap="round" transform="translate(13.812108733140121 183.86635557613727) rotate(0 79.16174988689716 79.16174988689716)"><path d="M81.84 -0.61 C91.85 -1.51, 104.17 3.43, 113.83 8.41 C123.49 13.39, 133 21.14, 139.8 29.27 C146.61 37.39, 151.73 46.81, 154.68 57.16 C157.62 67.5, 158.88 80.69, 157.48 91.35 C156.07 102.01, 151.9 112.23, 146.26 121.12 C140.63 130.01, 132.55 138.67, 123.69 144.7 C114.83 150.73, 103.83 155.45, 93.11 157.31 C82.39 159.17, 69.83 158.35, 59.36 155.84 C48.9 153.33, 38.65 148.96, 30.32 142.25 C22 135.55, 14.27 125.21, 9.41 115.6 C4.54 106, 2.04 95.39, 1.13 84.61 C0.22 73.83, 0.4 61.15, 3.97 50.92 C7.54 40.7, 15 30.67, 22.55 23.24 C30.1 15.81, 38.03 10.24, 49.27 6.33 C60.52 2.43, 82.24 0.21, 90.02 -0.19 C97.8 -0.59, 96.21 2.52, 95.95 3.95 M100.91 1.78 C111.35 3.65, 122.49 11.56, 130.67 18.89 C138.84 26.21, 145.28 36.32, 149.97 45.74 C154.66 55.16, 158.21 64.96, 158.83 75.43 C159.44 85.89, 157.86 98.31, 153.64 108.53 C149.42 118.75, 141.69 128.99, 133.52 136.76 C125.36 144.52, 114.61 151.67, 104.64 155.13 C94.68 158.59, 84.04 158.65, 73.73 157.5 C63.42 156.36, 52.21 153.15, 42.78 148.27 C33.35 143.38, 23.75 136.35, 17.14 128.2 C10.52 120.06, 5.75 109.88, 3.08 99.41 C0.42 88.94, -0.54 76.06, 1.14 65.36 C2.82 54.67, 7.3 44.2, 13.19 35.24 C19.07 26.29, 27.24 17.37, 36.47 11.64 C45.69 5.92, 57.61 2.15, 68.53 0.87 C79.44 -0.41, 96.64 3.36, 101.95 3.97 C107.27 4.58, 100.98 3.25, 100.4 4.54" stroke="#1e1e1e" stroke-width="1" fill="none"></path></g><g stroke-linecap="round" transform="translate(54.17433367065473 207.31642933805733) rotate(0 39.419766023173906 26.279844015449385)"><path d="M13.14 0 C35.98 1.59, 54.07 -1.39, 65.7 0 M13.14 0 C27.65 -0.55, 40.2 0.1, 65.7 0 M65.7 0 C76.07 0.34, 78.22 5.53, 78.84 13.14 M65.7 0 C73.77 1.32, 79.13 3.72, 78.84 13.14 M78.84 13.14 C79.52 20.13, 80.81 29.27, 78.84 39.42 M78.84 13.14 C77.96 17.98, 79.33 24.98, 78.84 39.42 M78.84 39.42 C77.23 49.36, 75.78 53.42, 65.7 52.56 M78.84 39.42 C78.78 49.48, 72.23 51.16, 65.7 52.56 M65.7 52.56 C51.34 52.1, 37.85 53.43, 13.14 52.56 M65.7 52.56 C53.96 52.69, 41.9 53.37, 13.14 52.56 M13.14 52.56 C4.84 51.75, 1.35 47.29, 0 39.42 M13.14 52.56 C5.17 53.34, 1.22 50.25, 0 39.42 M0 39.42 C0.72 30.44, -0.37 24.19, 0 13.14 M0 39.42 C-0.38 31.22, -0.48 23.84, 0 13.14 M0 13.14 C-0.79 5.4, 5.73 1.69, 13.14 0 M0 13.14 C1.41 4.97, 4.1 2.25, 13.14 0" stroke="#1e1e1e" stroke-width="1" fill="none"></path></g><g stroke-linecap="round" transform="translate(46.65486781308732 265.72629243533265) rotate(0 46.31899080695007 6.340242087643219)"><path d="M3.17 0 C29.28 -1.03, 55.94 -0.12, 89.47 0 M3.17 0 C26.73 0.28, 51.23 0.38, 89.47 0 M89.47 0 C91.27 0.58, 92.34 1.63, 92.64 3.17 M89.47 0 C91.72 -0.33, 92.59 1.28, 92.64 3.17 M92.64 3.17 C92.95 5.76, 92.35 7.91, 92.64 9.51 M92.64 3.17 C92.73 5.27, 92.49 7.16, 92.64 9.51 M92.64 9.51 C93.3 12.05, 91.56 13.25, 89.47 12.68 M92.64 9.51 C91.52 10.92, 91.33 11.64, 89.47 12.68 M89.47 12.68 C61.86 12.91, 32.03 13.34, 3.17 12.68 M89.47 12.68 C66.17 13.31, 43.89 12.61, 3.17 12.68 M3.17 12.68 C1.73 12.23, 0.34 11.96, 0 9.51 M3.17 12.68 C1.67 13.71, -0.08 11.78, 0 9.51 M0 9.51 C-0.06 7.84, 0.02 6.28, 0 3.17 M0 9.51 C-0.05 7.36, -0.05 5.09, 0 3.17 M0 3.17 C0.68 1.9, 1.67 0.26, 3.17 0 M0 3.17 C-0.14 2.18, 1.85 0.39, 3.17 0" stroke="#1e1e1e" stroke-width="1" fill="none"></path></g><g stroke-linecap="round" transform="translate(114.9538606304468 270.369850020649) rotate(0 8.2998630771732 1.5999437192997448)"><path d="M0.8 0 C6.24 0.23, 12.07 0.58, 15.8 0 M0.8 0 C4.58 0.07, 7.64 0.22, 15.8 0 M15.8 0 C16.03 0.57, 16.72 -0.02, 16.6 0.8 M15.8 0 C16.28 0.22, 17.68 0.63, 16.6 0.8 M16.6 0.8 C16.53 1.15, 16.61 1.58, 16.6 2.4 M16.6 0.8 C16.57 1.21, 16.63 1.59, 16.6 2.4 M16.6 2.4 C16.57 3.5, 15.36 2.59, 15.8 3.2 M16.6 2.4 C16.35 1.89, 16.66 3.35, 15.8 3.2 M15.8 3.2 C11.14 3.82, 7.44 3.01, 0.8 3.2 M15.8 3.2 C10.92 3.12, 6.11 3.11, 0.8 3.2 M0.8 3.2 C0.61 3.54, 0.53 3.83, 0 2.4 M0.8 3.2 C0.18 3.36, -0.38 3.36, 0 2.4 M0 2.4 C0.01 2.06, 0.05 1.63, 0 0.8 M0 2.4 C-0.01 1.95, 0.03 1.5, 0 0.8 M0 0.8 C0.61 0.52, 0.14 0.98, 0.8 0 M0 0.8 C0.79 0.65, -0.83 -0.86, 0.8 0" stroke="#1e1e1e" stroke-width="1" fill="none"></path></g><g stroke-linecap="round" transform="translate(85.5446625901111 260.6957717179055) rotate(0 8.2998630771732 1.5999437192997448)"><path d="M0.8 0 C4.11 0.51, 7.26 -0.43, 15.8 0 M0.8 0 C5.15 0.2, 9.62 0.2, 15.8 0 M15.8 0 C16.46 -0.29, 16.56 0.46, 16.6 0.8 M15.8 0 C17.42 0.36, 16.15 1.37, 16.6 0.8 M16.6 0.8 C16.6 1.27, 16.55 1.91, 16.6 2.4 M16.6 0.8 C16.62 1.45, 16.59 2.1, 16.6 2.4 M16.6 2.4 C15.63 2.32, 16.12 2.3, 15.8 3.2 M16.6 2.4 C16.92 3.09, 15.98 4, 15.8 3.2 M15.8 3.2 C10.49 3.04, 5.95 2.58, 0.8 3.2 M15.8 3.2 C10.06 3, 3.94 3.3, 0.8 3.2 M0.8 3.2 C0.8 4.1, -0.07 3.07, 0 2.4 M0.8 3.2 C-0.11 3.63, -0.74 2.74, 0 2.4 M0 2.4 C0.04 1.89, -0.01 1.39, 0 0.8 M0 2.4 C0.03 1.85, 0.03 1.23, 0 0.8 M0 0.8 C-0.12 1.24, 0.96 0.34, 0.8 0 M0 0.8 C-1.1 -0.59, -0.02 -0.36, 0.8 0" stroke="#1e1e1e" stroke-width="1" fill="none"></path></g><g stroke-linecap="round" transform="translate(60.945093359868224 213.3970617644802) rotate(0 32.69932931184417 20.510065799919403)"><path d="M10.26 0 C23.41 -1.41, 39.24 1.29, 55.14 0 M10.26 0 C24.18 0.31, 38.83 -0.54, 55.14 0 M55.14 0 C61.89 0.39, 67.28 4.05, 65.4 10.26 M55.14 0 C61.08 2.21, 66.08 1.27, 65.4 10.26 M65.4 10.26 C64.25 16.16, 67.38 17.62, 65.4 30.77 M65.4 10.26 C65.51 18.18, 64.56 24.37, 65.4 30.77 M65.4 30.77 C64.96 35.79, 62.54 41.29, 55.14 41.02 M65.4 30.77 C64.7 39.2, 62.81 39.13, 55.14 41.02 M55.14 41.02 C38.78 39.09, 23.14 41.35, 10.26 41.02 M55.14 41.02 C43.85 41.16, 32.39 41.72, 10.26 41.02 M10.26 41.02 C3.28 41.29, -0.66 38.35, 0 30.77 M10.26 41.02 C1.94 40.64, 0.19 37.81, 0 30.77 M0 30.77 C-0.27 22.92, 1.23 15.69, 0 10.26 M0 30.77 C0.47 23.82, -0.26 17.35, 0 10.26 M0 10.26 C1.38 4.09, 1.51 -1.49, 10.26 0 M0 10.26 C-0.58 2.7, 4.46 -2.03, 10.26 0" stroke="#1e1e1e" stroke-width="1" fill="none"></path></g><g transform="translate(42.44519107031124 288.167806724068) rotate(0 55.147208086740534 18.823580360274036)"><text x="55.147208086740505" y="0" font-family="Cascadia, Segoe UI Emoji" font-size="31.372633933790155px" fill="#343a40" text-anchor="middle" style="white-space: pre;" direction="ltr" dominant-baseline="text-before-edge">client</text></g><g stroke-linecap="round" transform="translate(627.8694970226466 10) rotate(0 718.749910562445 375.34834922882476)"><path d="M7.86 8.16 C7.86 8.16, 7.86 8.16, 7.86 8.16 M7.86 8.16 C7.86 8.16, 7.86 8.16, 7.86 8.16 M1.43 27.75 C7.02 20.07, 11.54 14.52, 24.4 1.33 M1.43 27.75 C7.61 21.25, 13.3 14.98, 24.4 1.33 M0.26 41.3 C14.01 28.89, 25 13.85, 36.34 -0.21 M0.26 41.3 C11.99 28.99, 21.77 14.96, 36.34 -0.21 M0.39 53.34 C13.19 35.76, 29.03 18.95, 46.97 -0.25 M0.39 53.34 C11.77 40.47, 22.58 27.66, 46.97 -0.25 M0.52 65.38 C13.82 50.31, 24.53 38.05, 57.6 -0.28 M0.52 65.38 C19.03 45.35, 36.49 23.7, 57.6 -0.28 M0 78.17 C15.35 58.34, 30.72 40.38, 67.57 0.44 M0 78.17 C25.55 47.66, 52.3 16.38, 67.57 0.44 M0.13 90.22 C25.14 62.77, 50.34 33.7, 78.2 0.41 M0.13 90.22 C26.74 60.7, 52.81 31.55, 78.2 0.41 M0.26 102.26 C30.42 70.55, 56.37 35.7, 88.83 0.37 M0.26 102.26 C33.26 63.57, 67.24 23.97, 88.83 0.37 M0.4 114.3 C35.37 70.92, 75.66 29.44, 99.46 0.34 M0.4 114.3 C28.83 82.2, 56.21 51.11, 99.46 0.34 M0.53 126.34 C28.54 92.62, 60.66 59.73, 110.09 0.3 M0.53 126.34 C39.53 81.26, 77.21 37.63, 110.09 0.3 M0.01 139.13 C28.54 105.97, 55.21 76.59, 120.72 0.27 M0.01 139.13 C42.43 88.92, 84.51 40.03, 120.72 0.27 M0.14 151.17 C35.03 108.27, 72.38 69.49, 131.35 0.23 M0.14 151.17 C50.24 92.1, 100.27 35.32, 131.35 0.23 M0.27 163.22 C57.65 97.7, 111.43 34.45, 141.98 0.2 M0.27 163.22 C46.86 110.61, 91.98 59, 141.98 0.2 M0.41 175.26 C50.23 115.72, 100.5 58.99, 152.61 0.16 M0.41 175.26 C55.65 112.63, 110.12 50.39, 152.61 0.16 M0.54 187.3 C55.27 124.74, 108.76 63.32, 163.24 0.13 M0.54 187.3 C37.99 143.56, 73.93 101.22, 163.24 0.13 M0.02 200.09 C58.92 130.63, 118.93 63.52, 173.87 0.09 M0.02 200.09 C50.69 141.4, 103.57 79.71, 173.87 0.09 M0.15 212.13 C65.4 139.63, 129.62 63.89, 184.5 0.06 M0.15 212.13 C55.17 149.72, 107.86 88.48, 184.5 0.06 M0.28 224.17 C78.99 137.38, 156.02 48.06, 195.13 0.03 M0.28 224.17 C53 163.56, 104.89 103.99, 195.13 0.03 M0.42 236.22 C59.58 165.23, 119.53 95.05, 205.76 -0.01 M0.42 236.22 C43.84 185.81, 88.29 134.62, 205.76 -0.01 M-0.11 249.01 C59.21 181.69, 120.48 110.75, 216.39 -0.04 M-0.11 249.01 C48.27 192.58, 97.22 136.7, 216.39 -0.04 M0.03 261.05 C63.64 188.14, 127.99 113.42, 227.02 -0.08 M0.03 261.05 C61.96 189.71, 122.69 119.97, 227.02 -0.08 M0.16 273.09 C92.6 167.59, 185.07 62.84, 237.65 -0.11 M0.16 273.09 C90.05 171.63, 179.89 68.42, 237.65 -0.11 M0.29 285.13 C86.83 184, 174.02 85.02, 248.28 -0.15 M0.29 285.13 C51.11 224.64, 102.7 165.82, 248.28 -0.15 M0.43 297.17 C54.05 233.75, 107.29 172.85, 258.91 -0.18 M0.43 297.17 C64.44 222.76, 129.85 148.23, 258.91 -0.18 M-0.1 309.97 C56.13 245.84, 112.39 181.31, 269.54 -0.22 M-0.1 309.97 C98.95 197.59, 196.83 84.97, 269.54 -0.22 M0.04 322.01 C63.55 249.07, 127.18 176.74, 280.17 -0.25 M0.04 322.01 C110.1 194.37, 221.88 65.44, 280.17 -0.25 M0.17 334.05 C85.34 231.64, 172.74 131.61, 290.8 -0.28 M0.17 334.05 C99.63 221.03, 197.44 108.27, 290.8 -0.28 M0.3 346.09 C71.41 266.81, 141.54 186.75, 300.78 0.44 M0.3 346.09 C90 239.77, 181.65 134.97, 300.78 0.44 M0.44 358.13 C102.84 239.83, 203.04 122.65, 311.41 0.4 M0.44 358.13 C96.63 246.47, 193.18 136.19, 311.41 0.4 M-0.09 370.93 C65.34 295.58, 131.26 219.24, 322.04 0.37 M-0.09 370.93 C86.17 269.71, 173.74 169.29, 322.04 0.37 M0.05 382.97 C109.83 255.26, 219.9 129.16, 332.67 0.33 M0.05 382.97 C112.26 251.78, 225.7 120.7, 332.67 0.33 M0.18 395.01 C80.54 304, 157.67 212.87, 343.3 0.3 M0.18 395.01 C116.62 261.03, 232.51 128.59, 343.3 0.3 M0.31 407.05 C75.72 322.43, 149.55 239.29, 353.93 0.26 M0.31 407.05 C93.61 299.73, 187.19 191.36, 353.93 0.26 M0.45 419.09 C141.08 258.55, 280.38 98.2, 364.56 0.23 M0.45 419.09 C131.39 267.05, 261.62 116.88, 364.56 0.23 M-0.08 431.89 C149.54 257.88, 298.86 86.44, 375.19 0.19 M-0.08 431.89 C147.41 260.42, 296.13 89.91, 375.19 0.19 M0.06 443.93 C97.84 334.19, 192.76 224.34, 385.82 0.16 M0.06 443.93 C124.99 298.51, 251.24 153.58, 385.82 0.16 M0.19 455.97 C155.77 276.01, 312.47 95.29, 396.45 0.12 M0.19 455.97 C84.71 357.53, 169.16 259.91, 396.45 0.12 M0.32 468.01 C80.22 374.15, 162.66 278.9, 407.08 0.09 M0.32 468.01 C103.64 349.7, 206.09 231.91, 407.08 0.09 M0.46 480.05 C99.67 364.51, 198.67 251.42, 417.71 0.06 M0.46 480.05 C121.61 342.45, 242.88 203.01, 417.71 0.06 M-0.07 492.85 C134.9 334.83, 270.58 178.61, 428.34 0.02 M-0.07 492.85 C115.06 359.31, 232.76 223.89, 428.34 0.02 M0.07 504.89 C91.81 397.21, 184.36 289.87, 438.97 -0.01 M0.07 504.89 C158.26 320.7, 317.51 137.73, 438.97 -0.01 M0.2 516.93 C121.3 377.3, 244.21 236.62, 449.6 -0.05 M0.2 516.93 C164.54 329.03, 327.19 141.94, 449.6 -0.05 M0.33 528.97 C163.29 340.54, 326.56 153.77, 460.23 -0.08 M0.33 528.97 C114.28 394.66, 229.53 263.15, 460.23 -0.08 M0.47 541.01 C112.27 411.84, 223.79 283.4, 470.86 -0.12 M0.47 541.01 C96.03 430.48, 193.24 318.13, 470.86 -0.12 M-0.06 553.81 C165.36 360.13, 333.33 166.58, 481.49 -0.15 M-0.06 553.81 C164.86 363.58, 330.78 172.74, 481.49 -0.15 M0.08 565.85 C190.44 350.52, 379.19 132.52, 492.12 -0.19 M0.08 565.85 C163.9 380.75, 326.61 193.68, 492.12 -0.19 M0.21 577.89 C117.4 444.5, 232.76 310.2, 502.75 -0.22 M0.21 577.89 C160.7 392.68, 320.32 208.77, 502.75 -0.22 M0.34 589.93 C198.97 363.62, 397.06 137.67, 513.38 -0.25 M0.34 589.93 C192.67 367.74, 386.46 145.01, 513.38 -0.25 M0.48 601.97 C147.13 434.14, 292.73 265.37, 523.35 0.47 M0.48 601.97 C116.03 471.35, 229.88 339.79, 523.35 0.47 M-0.05 614.76 C162.21 427.84, 323.88 241.2, 533.98 0.43 M-0.05 614.76 C117.49 479.12, 235.98 342.7, 533.98 0.43 M0.09 626.81 C179.52 425.31, 356.18 220.95, 544.61 0.4 M0.09 626.81 C200.89 398.37, 400.61 168.52, 544.61 0.4 M0.22 638.85 C170.33 440.76, 343 242.28, 555.24 0.36 M0.22 638.85 C147.04 472.93, 291.91 306.17, 555.24 0.36 M0.35 650.89 C139.99 492.88, 279.73 332.56, 565.87 0.33 M0.35 650.89 C151.28 479.66, 301.18 306.79, 565.87 0.33 M0.49 662.93 C213.26 417.27, 425.39 173.65, 576.5 0.29 M0.49 662.93 C184.2 449.03, 370.26 235.41, 576.5 0.29 M-0.04 675.72 C158.63 493.12, 317.72 310.06, 587.14 0.26 M-0.04 675.72 C170.59 478.46, 340.86 281.96, 587.14 0.26 M0.1 687.76 C205.39 454.56, 409.14 220.47, 597.77 0.22 M0.1 687.76 C212.59 437.85, 428.34 190.45, 597.77 0.22 M0.23 699.81 C165.74 509.17, 330.66 319.96, 608.4 0.19 M0.23 699.81 C241.45 421.19, 481.25 145.42, 608.4 0.19 M0.36 711.85 C178.15 504.21, 356.24 297.16, 619.03 0.16 M0.36 711.85 C219.95 460.06, 437.09 210.21, 619.03 0.16 M1.15 723.13 C171.67 526.07, 343.44 329.05, 629.66 0.12 M1.15 723.13 C134.94 570.51, 266.3 419.64, 629.66 0.12 M2.6 733.66 C243.26 456.46, 484.76 178.79, 640.29 0.09 M2.6 733.66 C129.15 584.17, 257.54 436.25, 640.29 0.09 M7.32 740.42 C230.67 478.97, 456.22 221.27, 650.92 0.05 M7.32 740.42 C226.65 486.63, 445.1 235.15, 650.92 0.05 M12.7 746.43 C249.22 477.75, 481.4 208.48, 661.55 0.02 M12.7 746.43 C171.15 563.33, 329.01 382, 661.55 0.02 M20.71 749.41 C227.51 510.1, 435.1 271.64, 672.18 -0.02 M20.71 749.41 C197.45 547.71, 372.71 345.77, 672.18 -0.02 M30.03 750.88 C224.69 526.18, 418.96 304.5, 682.81 -0.05 M30.03 750.88 C251.57 499.69, 471.87 246.29, 682.81 -0.05 M40.66 750.85 C205.53 561.87, 368.24 374.33, 693.44 -0.09 M40.66 750.85 C208.62 556.1, 377.14 362.21, 693.44 -0.09 M51.29 750.82 C208.86 572.21, 366.16 390.8, 704.07 -0.12 M51.29 750.82 C289.11 473.94, 527.53 199.19, 704.07 -0.12 M61.92 750.78 C295.89 480.58, 531.78 208.95, 714.7 -0.16 M61.92 750.78 C222.52 569.45, 379.38 388.66, 714.7 -0.16 M72.55 750.75 C302.09 487.2, 529.47 225.19, 725.33 -0.19 M72.55 750.75 C296.96 491.4, 520.31 234.42, 725.33 -0.19 M82.52 751.47 C290.9 510.67, 498.04 270.93, 735.96 -0.22 M82.52 751.47 C299.85 498.93, 516.79 249.35, 735.96 -0.22 M93.15 751.43 C334.38 472.08, 578.14 191.93, 746.59 -0.26 M93.15 751.43 C291.15 520.8, 490.95 290.63, 746.59 -0.26 M103.78 751.4 C320.7 498.92, 539.92 246.46, 756.56 0.46 M103.78 751.4 C315.81 510.32, 525.03 269.63, 756.56 0.46 M114.41 751.36 C350.68 479.79, 588.2 206.27, 767.19 0.43 M114.41 751.36 C256.62 585.6, 400.57 419.47, 767.19 0.43 M125.04 751.33 C304.85 546.7, 484.71 339.26, 777.82 0.39 M125.04 751.33 C370.06 473.14, 612.35 194.09, 777.82 0.39 M135.67 751.29 C379.32 474.98, 619.09 198.3, 788.45 0.36 M135.67 751.29 C318.88 541.92, 500.93 332.77, 788.45 0.36 M146.3 751.26 C372.38 491.16, 600.19 230.16, 799.08 0.32 M146.3 751.26 C357.67 505.27, 571.41 259.38, 799.08 0.32 M156.93 751.23 C379.92 496.63, 600.26 242.22, 809.71 0.29 M156.93 751.23 C416.4 450.29, 676.1 150.37, 809.71 0.29 M167.56 751.19 C308.93 590.45, 448.89 428.91, 820.34 0.25 M167.56 751.19 C300.94 593.18, 436.16 436.9, 820.34 0.25 M178.19 751.16 C320.66 587.79, 463.76 423.97, 830.97 0.22 M178.19 751.16 C392.12 509.62, 603.36 265.95, 830.97 0.22 M188.82 751.12 C371.29 536.31, 555.87 325.25, 841.6 0.19 M188.82 751.12 C391.41 520.89, 592.16 290.12, 841.6 0.19 M199.45 751.09 C360.82 560.28, 525.57 371.39, 852.23 0.15 M199.45 751.09 C411.53 503.01, 624.88 256.93, 852.23 0.15 M210.08 751.05 C343.28 595.52, 479.01 440.71, 862.86 0.12 M210.08 751.05 C406.6 526.35, 601.75 301.98, 862.86 0.12 M220.71 751.02 C405.29 537.04, 589.52 323.77, 873.49 0.08 M220.71 751.02 C421.39 518.84, 621.34 289.45, 873.49 0.08 M231.34 750.98 C485.88 455.98, 744.72 159.54, 884.12 0.05 M231.34 750.98 C447.89 504.49, 664.02 255.97, 884.12 0.05 M241.97 750.95 C410.34 558.4, 577.87 365.84, 894.75 0.01 M241.97 750.95 C429.92 535.26, 615.3 322.59, 894.75 0.01 M252.6 750.91 C447.76 529.24, 642.34 304.57, 905.38 -0.02 M252.6 750.91 C465.32 503.84, 680.27 257.53, 905.38 -0.02 M263.23 750.88 C463.86 522, 662.46 292.68, 916.01 -0.06 M263.23 750.88 C467.31 513.64, 671.22 279.28, 916.01 -0.06 M273.86 750.85 C482.08 510.23, 690.81 270.23, 926.64 -0.09 M273.86 750.85 C464.85 532.65, 656.32 312.56, 926.64 -0.09 M284.49 750.81 C464.81 542.83, 643.36 337.16, 937.27 -0.12 M284.49 750.81 C527.08 475.42, 768.33 197.48, 937.27 -0.12 M295.12 750.78 C495.2 518.35, 697.03 286.76, 947.9 -0.16 M295.12 750.78 C428.5 594.96, 562.11 441.73, 947.9 -0.16 M305.75 750.74 C562.38 451.89, 820.9 152.51, 958.53 -0.19 M305.75 750.74 C475.34 556.11, 644.67 361.68, 958.53 -0.19 M315.73 751.46 C487.71 550.84, 660.4 352.63, 969.16 -0.23 M315.73 751.46 C523.09 514.55, 730.16 277.31, 969.16 -0.23 M326.36 751.43 C462.78 593.67, 600.68 435.78, 979.79 -0.26 M326.36 751.43 C531.94 516.15, 735.35 282.22, 979.79 -0.26 M336.99 751.39 C486.68 576.22, 637.33 402.36, 989.77 0.46 M336.99 751.39 C506.17 558.14, 676.09 362.69, 989.77 0.46 M347.62 751.36 C506.3 567.21, 668.33 381.81, 1000.4 0.42 M347.62 751.36 C531.77 535.14, 717.95 321.56, 1000.4 0.42 M358.25 751.32 C492.45 595.94, 629.26 438.17, 1011.03 0.39 M358.25 751.32 C583.74 493.32, 808.7 234.78, 1011.03 0.39 M368.88 751.29 C588.45 496.19, 810.4 241.18, 1021.66 0.35 M368.88 751.29 C542.24 556.04, 713.19 359.49, 1021.66 0.35 M379.51 751.26 C534.12 570.97, 690.55 391.4, 1032.29 0.32 M379.51 751.26 C541.61 559.86, 707.36 370, 1032.29 0.32 M390.14 751.22 C597.94 510.14, 806.23 270.89, 1042.92 0.28 M390.14 751.22 C618.12 483.9, 849.05 217.88, 1042.92 0.28 M400.77 751.19 C605.94 512.85, 811.6 276.48, 1053.55 0.25 M400.77 751.19 C627 487.62, 854.13 227.21, 1053.55 0.25 M411.4 751.15 C614.75 517.2, 819.41 279.54, 1064.18 0.22 M411.4 751.15 C670.37 454.29, 929.25 156.43, 1064.18 0.22 M422.03 751.12 C604.84 545.99, 784.55 338.12, 1074.81 0.18 M422.03 751.12 C661.06 476.88, 899.84 201.98, 1074.81 0.18 M432.66 751.08 C598.19 561.2, 762.49 372.73, 1085.44 0.15 M432.66 751.08 C601.12 562.64, 767.77 370.55, 1085.44 0.15 M443.29 751.05 C649.41 517.88, 853.47 282.88, 1096.07 0.11 M443.29 751.05 C651.45 508.18, 861.74 266.33, 1096.07 0.11 M453.92 751.01 C691.1 480.02, 925.94 210.4, 1106.7 0.08 M453.92 751.01 C660.65 511.95, 868.31 273.17, 1106.7 0.08 M464.55 750.98 C633.16 552.72, 804.24 356.81, 1117.33 0.04 M464.55 750.98 C603.07 593.96, 738.43 437.52, 1117.33 0.04 M475.18 750.94 C643.76 552.76, 814.58 355.5, 1127.96 0.01 M475.18 750.94 C606.63 596.32, 738.85 443.38, 1127.96 0.01 M485.81 750.91 C685.28 516.66, 887.09 285.06, 1138.59 -0.03 M485.81 750.91 C672.06 535.76, 860.49 318.06, 1138.59 -0.03 M496.44 750.88 C679.9 539.02, 862.24 328.95, 1149.22 -0.06 M496.44 750.88 C660.24 558.38, 825.38 368.56, 1149.22 -0.06 M507.07 750.84 C695.89 532.09, 886.47 313.42, 1159.85 -0.09 M507.07 750.84 C647.79 591.46, 784.96 433.17, 1159.85 -0.09 M517.7 750.81 C738.79 501.05, 957.33 251.49, 1170.48 -0.13 M517.7 750.81 C671.76 571.27, 826.46 393.01, 1170.48 -0.13 M528.33 750.77 C780.34 458.13, 1034.33 166.37, 1181.11 -0.16 M528.33 750.77 C720.77 530.17, 911.86 310.23, 1181.11 -0.16 M538.96 750.74 C698.56 564.65, 860.42 380.85, 1191.74 -0.2 M538.96 750.74 C703.51 561.42, 868.45 372.13, 1191.74 -0.2 M548.93 751.46 C699.08 574.56, 852.22 397.02, 1202.37 -0.23 M548.93 751.46 C698.58 576.31, 850.88 401.32, 1202.37 -0.23 M559.56 751.42 C715.44 574.2, 868.44 397.59, 1213 -0.27 M559.56 751.42 C701.5 584.38, 846.93 417.88, 1213 -0.27 M570.19 751.39 C703.1 597.97, 839.76 440.82, 1222.97 0.45 M570.19 751.39 C705.65 599.31, 839.22 446.15, 1222.97 0.45 M580.82 751.35 C717.64 589.87, 858.84 428.82, 1233.6 0.42 M580.82 751.35 C840.37 457.46, 1097.33 161.63, 1233.6 0.42 M591.45 751.32 C809.63 498.34, 1029.07 245.13, 1244.23 0.38 M591.45 751.32 C826.52 485.19, 1060.01 216.6, 1244.23 0.38 M602.08 751.29 C800.03 523.54, 996.16 295.66, 1254.86 0.35 M602.08 751.29 C763.37 568.28, 923.86 383.85, 1254.86 0.35 M612.71 751.25 C871.98 450.61, 1134.3 150.66, 1265.49 0.32 M612.71 751.25 C823.66 509.82, 1031.44 270.33, 1265.49 0.32 M623.34 751.22 C826.54 518.46, 1028.94 286.19, 1276.12 0.28 M623.34 751.22 C872.51 467.74, 1119.69 182.82, 1276.12 0.28 M633.97 751.18 C780.02 586.98, 923.15 422.48, 1286.75 0.25 M633.97 751.18 C827.41 530.2, 1018.65 310.42, 1286.75 0.25 M644.6 751.15 C807.73 566.17, 972.05 378.38, 1297.38 0.21 M644.6 751.15 C789.77 584.48, 935.52 416.11, 1297.38 0.21 M655.23 751.11 C898.81 472.4, 1141.04 193.53, 1308.01 0.18 M655.23 751.11 C890.67 480.35, 1124.18 211.06, 1308.01 0.18 M665.86 751.08 C817.91 575.62, 969.57 400.48, 1318.64 0.14 M665.86 751.08 C883.77 502.06, 1101.91 250.89, 1318.64 0.14 M676.49 751.04 C856.51 546.07, 1036.42 337.78, 1329.27 0.11 M676.49 751.04 C918.6 471.56, 1160.38 192.1, 1329.27 0.11 M687.12 751.01 C927.3 473.72, 1166.47 198.69, 1339.9 0.07 M687.12 751.01 C880.34 531.74, 1072.95 310.38, 1339.9 0.07 M697.75 750.98 C895.02 523.34, 1094.98 293.54, 1350.53 0.04 M697.75 750.98 C872.33 554.02, 1045.74 354.58, 1350.53 0.04 M708.38 750.94 C876.64 556.5, 1047.2 362.16, 1361.16 0 M708.38 750.94 C846.65 592.7, 984.84 434.13, 1361.16 0 M719.01 750.91 C900.62 540.8, 1081.51 331.72, 1371.79 -0.03 M719.01 750.91 C947.28 486.12, 1175.86 222.38, 1371.79 -0.03 M729.64 750.87 C937.17 511.54, 1144.35 272.4, 1382.42 -0.06 M729.64 750.87 C872.69 585.28, 1018.09 417.88, 1382.42 -0.06 M740.27 750.84 C975.22 481.06, 1211.54 209.61, 1393.05 -0.1 M740.27 750.84 C878.62 590.41, 1018.03 429.79, 1393.05 -0.1 M750.91 750.8 C912.49 568.62, 1070.89 386.79, 1403.68 -0.13 M750.91 750.8 C1004.93 460.69, 1258.01 168.81, 1403.68 -0.13 M761.54 750.77 C1003.04 473.94, 1244.74 196.4, 1413.66 0.59 M761.54 750.77 C902.81 590.61, 1043.84 428.28, 1413.66 0.59 M771.51 751.49 C995.37 498.57, 1216.72 244.56, 1421.66 3.57 M771.51 751.49 C1029.4 455.21, 1288.01 158.18, 1421.66 3.57 M782.14 751.45 C955.16 548.79, 1129.73 349.04, 1428.36 8.07 M782.14 751.45 C1036.45 457.21, 1292.81 162.73, 1428.36 8.07 M792.77 751.42 C929.26 597.33, 1063.55 442.43, 1433.74 14.07 M792.77 751.42 C962 553.8, 1131.8 358.53, 1433.74 14.07 M803.4 751.38 C977.41 553.17, 1148.77 356.24, 1436.5 23.09 M803.4 751.38 C1040.76 482.09, 1276.74 210.6, 1436.5 23.09 M814.03 751.35 C971.05 571.31, 1127.85 391.49, 1437.94 33.62 M814.03 751.35 C958.66 586.22, 1103.95 418.96, 1437.94 33.62 M824.66 751.32 C1030.39 515.59, 1239.05 277.15, 1438.07 45.66 M824.66 751.32 C969.71 586.6, 1114.05 420.6, 1438.07 45.66 M835.29 751.28 C1054.6 501.21, 1269.91 251.6, 1437.55 58.46 M835.29 751.28 C998.56 563.01, 1160.29 376.02, 1437.55 58.46 M845.92 751.25 C1008.27 561.22, 1173.47 372.33, 1437.69 70.5 M845.92 751.25 C995.39 579.06, 1145.37 405.65, 1437.69 70.5 M856.55 751.21 C990.52 595.33, 1125.94 440.38, 1437.82 82.54 M856.55 751.21 C1072.91 504.19, 1287.76 257.33, 1437.82 82.54 M867.18 751.18 C1008.14 586.48, 1150.02 422.3, 1437.95 94.58 M867.18 751.18 C1083.58 502.4, 1298.13 256.3, 1437.95 94.58 M877.81 751.14 C1025.73 580.56, 1175.57 406.89, 1438.08 106.62 M877.81 751.14 C1020.04 588.9, 1161.61 426.09, 1438.08 106.62 M888.44 751.11 C1031.77 587.69, 1174.76 423.62, 1437.56 119.42 M888.44 751.11 C1063.06 548.06, 1238.84 345.52, 1437.56 119.42 M899.07 751.07 C1038.38 591.9, 1176.48 434.38, 1437.69 131.46 M899.07 751.07 C1041.21 583.16, 1186.28 416.56, 1437.69 131.46 M909.7 751.04 C1049.54 591.32, 1186.88 431.36, 1437.83 143.5 M909.7 751.04 C1061.97 575.93, 1214.49 400.85, 1437.83 143.5 M920.33 751.01 C1068.13 577.68, 1218.39 407, 1437.96 155.54 M920.33 751.01 C1069.51 578.18, 1220.97 404.86, 1437.96 155.54 M930.96 750.97 C1064.19 598.38, 1196.61 446.63, 1438.09 167.58 M930.96 750.97 C1060.45 603.67, 1187.88 456.3, 1438.09 167.58 M941.59 750.94 C1067.44 603.09, 1194.93 457.37, 1437.57 180.38 M941.59 750.94 C1053.78 623.17, 1163.98 495.91, 1437.57 180.38 M952.22 750.9 C1052.25 633.76, 1154.27 515.96, 1437.7 192.42 M952.22 750.9 C1082.94 601.28, 1212.07 451.91, 1437.7 192.42 M962.85 750.87 C1128.75 559.82, 1294.3 370.4, 1437.84 204.46 M962.85 750.87 C1101.17 591.36, 1237.95 434.3, 1437.84 204.46 M973.48 750.83 C1113.98 586.83, 1255.05 423.96, 1437.97 216.5 M973.48 750.83 C1139.97 557.64, 1306.83 365.83, 1437.97 216.5 M984.11 750.8 C1142.04 570.17, 1299.91 387.36, 1438.1 228.54 M984.11 750.8 C1142.01 569.47, 1298.84 390.06, 1438.1 228.54 M994.74 750.76 C1127.32 600.58, 1258.45 450.18, 1437.58 241.34 M994.74 750.76 C1100.07 632.32, 1203.67 512.75, 1437.58 241.34 M1004.72 751.48 C1153.52 581.18, 1303.11 410.06, 1437.71 253.38 M1004.72 751.48 C1165.17 566.94, 1325.39 382.35, 1437.71 253.38 M1015.35 751.45 C1177.39 566.08, 1337.48 380.93, 1437.85 265.42 M1015.35 751.45 C1170.89 570.84, 1328.68 389.47, 1437.85 265.42 M1025.98 751.42 C1116.18 646.99, 1206.65 541.94, 1437.98 277.46 M1025.98 751.42 C1179.47 573.91, 1333.08 397.16, 1437.98 277.46 M1036.61 751.38 C1161.51 609.05, 1284.3 466.49, 1438.11 289.5 M1036.61 751.38 C1172.57 595.59, 1306.94 441.16, 1438.11 289.5 M1047.24 751.35 C1187.49 589.72, 1326.56 430.9, 1437.59 302.29 M1047.24 751.35 C1158.36 620.78, 1270.3 492.13, 1437.59 302.29 M1057.87 751.31 C1157.31 635.22, 1258.82 519.24, 1437.72 314.33 M1057.87 751.31 C1154.79 641.71, 1250.2 531.56, 1437.72 314.33 M1068.5 751.28 C1193.57 607.7, 1317.54 465.92, 1437.86 326.38 M1068.5 751.28 C1168.36 635.12, 1268.65 519.16, 1437.86 326.38 M1079.13 751.24 C1222.45 586.36, 1366.01 421.29, 1437.99 338.42 M1079.13 751.24 C1200.06 612.8, 1321.34 472.88, 1437.99 338.42 M1089.76 751.21 C1171.42 657.05, 1254.87 562.3, 1438.12 350.46 M1089.76 751.21 C1164.39 663.94, 1240.49 576.91, 1438.12 350.46 M1100.39 751.17 C1200.06 633.2, 1301.6 517.99, 1437.6 363.25 M1100.39 751.17 C1229.54 604.15, 1357.26 456.37, 1437.6 363.25 M1111.02 751.14 C1222.62 625.47, 1331.47 498.71, 1437.73 375.29 M1111.02 751.14 C1187.77 664.02, 1263.75 576.46, 1437.73 375.29 M1121.65 751.1 C1218.08 640.82, 1314.91 529.73, 1437.87 387.33 M1121.65 751.1 C1199.46 663.13, 1276.42 574.77, 1437.87 387.33 M1132.28 751.07 C1195.87 677.86, 1259 604.77, 1438 399.38 M1132.28 751.07 C1242.53 622.95, 1353.18 495.03, 1438 399.38 M1142.91 751.04 C1203.01 681.7, 1264.38 612.36, 1437.48 412.17 M1142.91 751.04 C1248.86 628.01, 1356.09 504.57, 1437.48 412.17 M1153.54 751 C1219 675.88, 1286.04 600.32, 1437.61 424.21 M1153.54 751 C1229.9 663.34, 1306.8 575.94, 1437.61 424.21 M1164.17 750.97 C1255.89 645.77, 1347.74 540.49, 1437.74 436.25 M1164.17 750.97 C1235.41 668.28, 1309.27 585.09, 1437.74 436.25 M1174.8 750.93 C1249.04 665.52, 1322.2 582.91, 1437.88 448.29 M1174.8 750.93 C1267.11 647.21, 1358.64 541.8, 1437.88 448.29 M1185.43 750.9 C1255.68 670.41, 1325.03 590.05, 1438.01 460.33 M1185.43 750.9 C1245.18 683.28, 1306.13 613.06, 1438.01 460.33 M1196.06 750.86 C1249.37 691.07, 1300.45 631.48, 1437.49 473.13 M1196.06 750.86 C1250.12 688.38, 1303.83 628.18, 1437.49 473.13 M1206.69 750.83 C1290.83 653.66, 1376.3 556.64, 1437.62 485.17 M1206.69 750.83 C1266.58 682.93, 1324.7 614.74, 1437.62 485.17 M1217.32 750.79 C1263.73 696.55, 1311.94 643.19, 1437.75 497.21 M1217.32 750.79 C1268.44 692.13, 1318.86 633.95, 1437.75 497.21 M1227.95 750.76 C1308.98 655.86, 1389.35 563.59, 1437.89 509.25 M1227.95 750.76 C1280.85 687.38, 1336.15 624.14, 1437.89 509.25 M1237.92 751.48 C1286.9 694.4, 1335.52 637.49, 1438.02 521.29 M1237.92 751.48 C1306.36 673.25, 1376.05 593.09, 1438.02 521.29 M1248.55 751.45 C1300.08 694.44, 1346.7 636.23, 1437.5 534.09 M1248.55 751.45 C1302.04 691.73, 1355.41 630.92, 1437.5 534.09 M1259.18 751.41 C1324.39 674.03, 1390.35 596.49, 1437.63 546.13 M1259.18 751.41 C1307.99 694.23, 1358.27 637.51, 1437.63 546.13 M1269.81 751.38 C1335.07 680.71, 1396.27 606.75, 1437.76 558.17 M1269.81 751.38 C1322.78 691.1, 1375.73 631.1, 1437.76 558.17 M1280.44 751.34 C1321.19 702.57, 1364.48 653.44, 1437.9 570.21 M1280.44 751.34 C1335 687.29, 1390.03 625.61, 1437.9 570.21 M1291.07 751.31 C1329.44 708.71, 1363.72 669.26, 1438.03 582.25 M1291.07 751.31 C1324.81 712.41, 1360.48 672.96, 1438.03 582.25 M1301.7 751.27 C1338.17 705.6, 1376.7 663.1, 1437.51 595.05 M1301.7 751.27 C1354.11 688.63, 1409.57 626.42, 1437.51 595.05 M1312.33 751.24 C1344.2 714.51, 1379.01 674.49, 1437.64 607.09 M1312.33 751.24 C1349.17 706.62, 1388.83 661.9, 1437.64 607.09 M1322.96 751.2 C1368.59 701.33, 1414.5 646.95, 1437.77 619.13 M1322.96 751.2 C1360.65 708.8, 1397.16 665.51, 1437.77 619.13 M1333.59 751.17 C1369.45 711.65, 1403.38 670.1, 1437.91 631.17 M1333.59 751.17 C1358.39 720.88, 1383.66 691.9, 1437.91 631.17 M1344.22 751.14 C1366.5 724.87, 1393.03 699.82, 1438.04 643.21 M1344.22 751.14 C1374.74 716.8, 1403.92 682.66, 1438.04 643.21 M1354.85 751.1 C1374.25 726.31, 1396.19 703.27, 1437.52 656.01 M1354.85 751.1 C1386.12 716.1, 1416.07 681.82, 1437.52 656.01 M1365.48 751.07 C1386.56 725.18, 1409.35 700.88, 1437.65 668.05 M1365.48 751.07 C1380.76 731.53, 1395.86 714, 1437.65 668.05 M1376.11 751.03 C1397.5 729.64, 1415.9 704.71, 1437.78 680.09 M1376.11 751.03 C1390.45 734.17, 1406.05 715.28, 1437.78 680.09 M1386.74 751 C1404.16 730.59, 1421.96 710.88, 1437.91 692.13 M1386.74 751 C1406.13 727.12, 1426.04 704.42, 1437.91 692.13 M1397.37 750.96 C1409.51 738.03, 1421.32 720.96, 1438.05 704.17 M1397.37 750.96 C1407.51 737.9, 1418.32 726.22, 1438.05 704.17 M1408.66 750.17 C1418.6 740.24, 1425.94 732.9, 1437.53 716.97 M1408.66 750.17 C1413.9 743.72, 1421.26 735.81, 1437.53 716.97 M1419.94 749.38 C1425.17 744.03, 1432.05 738.77, 1435.69 731.27 M1419.94 749.38 C1423.9 745.68, 1427.31 741.1, 1435.69 731.27" stroke="#ffd8a8" stroke-width="1" fill="none"></path><path d="M32 0 C490.76 5.29, 947.87 4.55, 1405.5 0 M32 0 C450.24 -1.89, 869.31 -2.01, 1405.5 0 M1405.5 0 C1425.28 0.85, 1439.18 11.24, 1437.5 32 M1405.5 0 C1426.6 -0.53, 1438.37 11.18, 1437.5 32 M1437.5 32 C1439.07 210.43, 1438.2 388.74, 1437.5 718.7 M1437.5 32 C1438.21 303.66, 1438.53 575.25, 1437.5 718.7 M1437.5 718.7 C1438.88 740.29, 1425.98 752.36, 1405.5 750.7 M1437.5 718.7 C1436.83 740.74, 1428.7 751.78, 1405.5 750.7 M1405.5 750.7 C979.2 749.27, 552.64 749.62, 32 750.7 M1405.5 750.7 C1107.24 755.85, 809.2 755.65, 32 750.7 M32 750.7 C12.29 749.01, 1.13 741, 0 718.7 M32 750.7 C11.04 750.07, -0.51 740.28, 0 718.7 M0 718.7 C0.04 494.91, -0.31 270.74, 0 32 M0 718.7 C0.73 578.21, 0.83 437.01, 0 32 M0 32 C-1.63 12.14, 11.9 0.36, 32 0 M0 32 C0.43 11.21, 11.24 -1.71, 32 0" stroke="#343a40" stroke-width="2" fill="none"></path></g><g transform="translate(1529.304546604339 55.784862765257685) rotate(0 238.50843535158575 22.202967072729393)"><text x="238.50843535158575" y="0" font-family="Cascadia, Segoe UI Emoji" font-size="37.00494512121573px" fill="#343a40" text-anchor="middle" style="white-space: pre;" direction="ltr" dominant-baseline="text-before-edge">Virtual Cloud Network </text></g><g transform="translate(472.4596279625282 435.51086551171943) rotate(0 153.85183602226903 21.32388534559982)"><text x="0" y="0" font-family="Virgil, Segoe UI Emoji" font-size="35.53980890933297px" fill="#000000" text-anchor="start" style="white-space: pre;" direction="ltr" dominant-baseline="text-before-edge">Internet gateway</text></g><g stroke-linecap="round" transform="translate(571.0825976859273 304.47994577201075) rotate(0 55.975199032199384 55.975199032199384)"><path d="M111.95 55.98 C111.95 58.41, 111.79 60.87, 111.47 63.28 C111.15 65.7, 110.67 68.11, 110.04 70.46 C109.41 72.82, 108.62 75.15, 107.69 77.4 C106.76 79.65, 105.67 81.85, 104.45 83.96 C103.23 86.07, 101.87 88.12, 100.38 90.05 C98.9 91.98, 97.28 93.83, 95.56 95.56 C93.83 97.28, 91.98 98.9, 90.05 100.38 C88.12 101.87, 86.07 103.23, 83.96 104.45 C81.85 105.67, 79.65 106.76, 77.4 107.69 C75.15 108.62, 72.82 109.41, 70.46 110.04 C68.11 110.67, 65.7 111.15, 63.28 111.47 C60.87 111.79, 58.41 111.95, 55.98 111.95 C53.54 111.95, 51.08 111.79, 48.67 111.47 C46.25 111.15, 43.84 110.67, 41.49 110.04 C39.14 109.41, 36.8 108.62, 34.55 107.69 C32.3 106.76, 30.1 105.67, 27.99 104.45 C25.88 103.23, 23.83 101.87, 21.9 100.38 C19.97 98.9, 18.12 97.28, 16.39 95.56 C14.67 93.83, 13.05 91.98, 11.57 90.05 C10.08 88.12, 8.72 86.07, 7.5 83.96 C6.28 81.85, 5.19 79.65, 4.26 77.4 C3.33 75.15, 2.54 72.82, 1.91 70.46 C1.28 68.11, 0.8 65.7, 0.48 63.28 C0.16 60.87, 0 58.41, 0 55.98 C0 53.54, 0.16 51.08, 0.48 48.67 C0.8 46.25, 1.28 43.84, 1.91 41.49 C2.54 39.14, 3.33 36.8, 4.26 34.55 C5.19 32.3, 6.28 30.1, 7.5 27.99 C8.72 25.88, 10.08 23.83, 11.57 21.9 C13.05 19.97, 14.67 18.12, 16.39 16.39 C18.12 14.67, 19.97 13.05, 21.9 11.57 C23.83 10.08, 25.88 8.72, 27.99 7.5 C30.1 6.28, 32.3 5.19, 34.55 4.26 C36.8 3.33, 39.14 2.54, 41.49 1.91 C43.84 1.28, 46.25 0.8, 48.67 0.48 C51.08 0.16, 53.54 0, 55.98 0 C58.41 0, 60.87 0.16, 63.28 0.48 C65.7 0.8, 68.11 1.28, 70.46 1.91 C72.82 2.54, 75.15 3.33, 77.4 4.26 C79.65 5.19, 81.85 6.28, 83.96 7.5 C86.07 8.72, 88.12 10.08, 90.05 11.57 C91.98 13.05, 93.83 14.67, 95.56 16.39 C97.28 18.12, 98.9 19.97, 100.38 21.9 C101.87 23.83, 103.23 25.88, 104.45 27.99 C105.67 30.1, 106.76 32.3, 107.69 34.55 C108.62 36.8, 109.41 39.14, 110.04 41.49 C110.67 43.84, 111.15 46.25, 111.47 48.67 C111.79 51.08, 111.87 54.76, 111.95 55.98 C112.03 57.19, 112.03 54.76, 111.95 55.98" stroke="#000000" stroke-width="2" fill="none"></path></g><g stroke-linecap="round"><g transform="translate(596.078638083641 393.3305952856497) rotate(0 31.613501684682774 -32.65000993663955)"><path d="M0 0 C0.17 -9.67, -5.7 -46.99, 1.04 -58.04 C7.77 -69.1, 30.23 -66.68, 40.42 -66.34 C50.62 -65.99, 58.39 -67.2, 62.19 -55.97 C65.99 -44.74, 63.05 -8.46, 63.23 1.04 M0 0 C0.17 -9.67, -5.7 -46.99, 1.04 -58.04 C7.77 -69.1, 30.23 -66.68, 40.42 -66.34 C50.62 -65.99, 58.39 -67.2, 62.19 -55.97 C65.99 -44.74, 63.05 -8.46, 63.23 1.04" stroke="#7950f288" stroke-width="2" fill="none"></path></g></g><mask></mask><g stroke-linecap="round"><g transform="translate(602.9589798601316 392.9390633422304) rotate(0 24.698048191158364 -28.658261186076402)"><path d="M0 0 C0.13 -8.49, -4.45 -41.24, 0.81 -50.95 C6.07 -60.65, 23.62 -58.53, 31.58 -58.23 C39.54 -57.92, 45.62 -58.98, 48.59 -49.13 C51.56 -39.27, 49.26 -7.43, 49.4 0.91 M0 0 C0.13 -8.49, -4.45 -41.24, 0.81 -50.95 C6.07 -60.65, 23.62 -58.53, 31.58 -58.23 C39.54 -57.92, 45.62 -58.98, 48.59 -49.13 C51.56 -39.27, 49.26 -7.43, 49.4 0.91" stroke="#7950f288" stroke-width="2" fill="none"></path></g></g><mask></mask><g stroke-linecap="round"><g transform="translate(653.397544416853 394.367103537606) rotate(0 2.0730165039137773 0)"><path d="M0 0 C0.69 0, 3.46 0, 4.15 0 M0 0 C0.69 0, 3.46 0, 4.15 0" stroke="#7950f288" stroke-width="2" fill="none"></path></g></g><mask></mask><g stroke-linecap="round"><g transform="translate(598.3589562379452 392.70869033447684) rotate(0 2.0730165039137773 0)"><path d="M0 0 C0.69 0, 3.46 0, 4.15 0 M0 0 C0.69 0, 3.46 0, 4.15 0" stroke="#7950f288" stroke-width="2" fill="none"></path></g></g><mask></mask><g transform="translate(1401.7460733734224 128.76815749842171) rotate(0 24.707364890946195 16.272687092603405)"><text x="24.7073648909462" y="0" font-family="Virgil, Segoe UI Emoji" font-size="27.121145154339043px" fill="#000000" text-anchor="middle" style="white-space: pre;" direction="ltr" dominant-baseline="text-before-edge">VPC</text></g><g stroke-linecap="round" transform="translate(1382.3267648324809 33.966865354384936) rotate(0 44.12667343188747 44.126673431887525)"><path d="M0 0 C0 0, 0 0, 0 0 M0 0 C0 0, 0 0, 0 0 M0.13 12.04 C4.13 7.44, 8.13 2.84, 10.63 -0.03 M0.13 12.04 C4.24 7.32, 8.34 2.6, 10.63 -0.03 M0.27 24.08 C5.55 18.01, 10.83 11.93, 21.26 -0.07 M0.27 24.08 C5.97 17.52, 11.68 10.95, 21.26 -0.07 M-0.26 36.88 C10.1 24.97, 20.45 13.05, 31.89 -0.1 M-0.26 36.88 C11.78 23.03, 23.81 9.19, 31.89 -0.1 M-0.12 48.92 C11.15 35.94, 22.43 22.97, 42.52 -0.14 M-0.12 48.92 C11.72 35.29, 23.57 21.66, 42.52 -0.14 M0.01 60.96 C15.55 43.08, 31.09 25.21, 53.15 -0.17 M0.01 60.96 C11.6 47.63, 23.19 34.3, 53.15 -0.17 M0.14 73 C24.98 44.43, 49.81 15.86, 63.78 -0.21 M0.14 73 C13.43 57.71, 26.72 42.43, 63.78 -0.21 M0.28 85.04 C18.12 64.51, 35.96 43.99, 74.41 -0.24 M0.28 85.04 C19.82 62.55, 39.37 40.06, 74.41 -0.24 M8.28 88.03 C27.72 65.66, 47.16 43.3, 85.04 -0.28 M8.28 88.03 C32.7 59.94, 57.12 31.85, 85.04 -0.28 M18.91 87.99 C39.23 64.62, 59.54 41.25, 88.45 7.99 M18.91 87.99 C36.38 67.9, 53.84 47.81, 88.45 7.99 M29.54 87.96 C47.52 67.28, 65.5 46.59, 88.59 20.03 M29.54 87.96 C41.79 73.87, 54.04 59.78, 88.59 20.03 M39.52 88.68 C51.74 74.61, 63.97 60.55, 88.72 32.07 M39.52 88.68 C50.29 76.29, 61.06 63.89, 88.72 32.07 M50.15 88.64 C62.59 74.33, 75.04 60.01, 88.85 44.11 M50.15 88.64 C62.8 74.09, 75.45 59.53, 88.85 44.11 M60.78 88.61 C68.72 79.47, 76.66 70.34, 88.33 56.91 M60.78 88.61 C66.39 82.15, 72.01 75.68, 88.33 56.91 M71.41 88.57 C76.67 82.52, 81.93 76.47, 88.46 68.95 M71.41 88.57 C76.1 83.17, 80.8 77.77, 88.46 68.95 M82.04 88.54 C83.78 86.53, 85.53 84.52, 88.6 80.99 M82.04 88.54 C84.28 85.96, 86.52 83.39, 88.6 80.99 M0.08 88.32 C0.08 88.32, 0.08 88.32, 0.08 88.32 M0.08 88.32 C0.08 88.32, 0.08 88.32, 0.08 88.32 M12.12 88.19 C9.54 85.94, 6.96 83.7, 0.04 77.69 M12.12 88.19 C7.71 84.35, 3.3 80.52, 0.04 77.69 M24.16 88.05 C15.91 80.88, 7.66 73.72, 0.01 67.06 M24.16 88.05 C14.62 79.76, 5.09 71.47, 0.01 67.06 M36.95 88.58 C28.12 80.9, 19.29 73.23, -0.03 56.43 M36.95 88.58 C25.59 78.7, 14.22 68.82, -0.03 56.43 M48.99 88.44 C37.78 78.7, 26.57 68.95, -0.06 45.8 M48.99 88.44 C38.91 79.68, 28.83 70.91, -0.06 45.8 M61.03 88.31 C47.2 76.29, 33.37 64.26, -0.1 35.17 M61.03 88.31 C36.66 67.12, 12.29 45.94, -0.1 35.17 M73.08 88.18 C46.16 64.78, 19.24 41.38, -0.13 24.54 M73.08 88.18 C49.36 67.56, 25.65 46.95, -0.13 24.54 M85.12 88.04 C56.36 63.04, 27.6 38.04, -0.17 13.91 M85.12 88.04 C53.71 60.74, 22.3 33.44, -0.17 13.91 M88.1 80.04 C53.15 49.65, 18.19 19.27, -0.2 3.28 M88.1 80.04 C53.61 50.05, 19.11 20.06, -0.2 3.28 M88.07 69.41 C63.32 47.89, 38.57 26.38, 8.07 -0.13 M88.07 69.41 C60.58 45.51, 33.1 21.62, 8.07 -0.13 M88.03 58.78 C62.46 36.55, 36.89 14.32, 20.11 -0.27 M88.03 58.78 C61.2 35.45, 34.37 12.13, 20.11 -0.27 M88 48.15 C68.06 30.82, 48.13 13.49, 32.15 -0.4 M88 48.15 C68.42 31.13, 48.84 14.11, 32.15 -0.4 M87.96 37.52 C74.84 26.11, 61.73 14.71, 44.19 -0.53 M87.96 37.52 C71.56 23.26, 55.16 9, 44.19 -0.53 M88.68 27.54 C80.1 20.08, 71.51 12.62, 56.99 -0.01 M88.68 27.54 C81.91 21.66, 75.14 15.77, 56.99 -0.01 M88.65 16.91 C81.15 10.4, 73.65 3.88, 69.03 -0.14 M88.65 16.91 C82.45 11.53, 76.25 6.14, 69.03 -0.14 M88.61 6.28 C86.21 4.19, 83.81 2.1, 81.07 -0.28 M88.61 6.28 C86.69 4.61, 84.76 2.93, 81.07 -0.28" stroke="#7950f288" stroke-width="1" fill="none"></path><path d="M0 0 C30.3 0, 60.6 0, 88.25 0 M0 0 C35.07 0, 70.14 0, 88.25 0 M88.25 0 C88.25 24.27, 88.25 48.54, 88.25 88.25 M88.25 0 C88.25 20.34, 88.25 40.68, 88.25 88.25 M88.25 88.25 C53.04 88.25, 17.83 88.25, 0 88.25 M88.25 88.25 C56.14 88.25, 24.04 88.25, 0 88.25 M0 88.25 C0 53.2, 0 18.14, 0 0 M0 88.25 C0 68.45, 0 48.64, 0 0" stroke="#000000" stroke-width="2" fill="none"></path></g><g stroke-linecap="round"><g transform="translate(1463.430533986123 69.84385213644441) rotate(0 -36.77342633294529 -3.7797171632247455)"><path d="M0 0 C-0.56 -0.88, -1.7 -4.08, -3.34 -5.26 C-4.97 -6.44, -8.61 -6.57, -9.81 -7.08 C-11.01 -7.58, -10.2 -7.2, -10.54 -8.3 C-10.88 -9.39, -10.62 -12.33, -11.86 -13.64 C-13.1 -14.95, -16.02 -16.32, -17.97 -16.15 C-19.91 -15.98, -22.51 -13.12, -23.54 -12.62 C-24.57 -12.13, -22.61 -11.57, -24.14 -13.18 C-25.67 -14.79, -29.18 -20.08, -32.7 -22.26 C-36.22 -24.45, -41.19 -26.47, -45.25 -26.29 C-49.31 -26.11, -54.16 -24.16, -57.06 -21.18 C-59.96 -18.2, -61.58 -10.89, -62.66 -8.41 C-63.74 -5.93, -61.97 -7.55, -63.54 -6.29 C-65.11 -5.03, -70.41 -3.63, -72.07 -0.87 C-73.74 1.88, -74.48 7.11, -73.55 10.24 C-72.62 13.38, -69.06 16.54, -66.5 17.94 C-63.93 19.34, -61.24 18.49, -58.13 18.62 C-55.02 18.76, -50.71 18.74, -47.84 18.73 C-44.97 18.72, -42.09 18.6, -40.94 18.58 M0 0 C-0.56 -0.88, -1.7 -4.08, -3.34 -5.26 C-4.97 -6.44, -8.61 -6.57, -9.81 -7.08 C-11.01 -7.58, -10.2 -7.2, -10.54 -8.3 C-10.88 -9.39, -10.62 -12.33, -11.86 -13.64 C-13.1 -14.95, -16.02 -16.32, -17.97 -16.15 C-19.91 -15.98, -22.51 -13.12, -23.54 -12.62 C-24.57 -12.13, -22.61 -11.57, -24.14 -13.18 C-25.67 -14.79, -29.18 -20.08, -32.7 -22.26 C-36.22 -24.45, -41.19 -26.47, -45.25 -26.29 C-49.31 -26.11, -54.16 -24.16, -57.06 -21.18 C-59.96 -18.2, -61.58 -10.89, -62.66 -8.41 C-63.74 -5.93, -61.97 -7.55, -63.54 -6.29 C-65.11 -5.03, -70.41 -3.63, -72.07 -0.87 C-73.74 1.88, -74.48 7.11, -73.55 10.24 C-72.62 13.38, -69.06 16.54, -66.5 17.94 C-63.93 19.34, -61.24 18.49, -58.13 18.62 C-55.02 18.76, -50.71 18.74, -47.84 18.73 C-44.97 18.72, -42.09 18.6, -40.94 18.58" stroke="#000000" stroke-width="2" fill="none"></path></g></g><mask></mask><g stroke-linecap="round"><g transform="translate(1429.6708094488258 74.15852371034657) rotate(0 16.83592005117751 -3.367184010235519)"><path d="M0 0 C4.76 -2.01, 9.53 -4.02, 15.95 -6.73 M0 0 C3.62 -1.53, 7.25 -3.06, 15.95 -6.73 M15.95 -6.73 C19.94 -5.22, 23.92 -3.7, 33.67 0 M15.95 -6.73 C20 -5.2, 24.05 -3.66, 33.67 0" stroke="#000000" stroke-width="2" fill="none"></path></g></g><mask></mask><g stroke-linecap="round"><g transform="translate(1428.961928604566 74.35980018053056) rotate(0 17.190360473307578 19.139782795022825)"><path d="M0 0 C0 3.25, -0.06 15.18, 0 19.49 C0.06 23.81, -0.24 23.92, 0.35 25.87 C0.95 27.82, 2.36 29.65, 3.54 31.19 C4.73 32.73, 6.08 34.14, 7.44 35.09 C8.8 36.03, 9.98 36.33, 11.7 36.86 C13.41 37.39, 15.83 38.22, 17.72 38.28 C19.61 38.34, 21.44 37.81, 23.04 37.22 C24.63 36.63, 25.87 36.03, 27.29 34.74 C28.71 33.44, 30.48 31.43, 31.55 29.42 C32.61 27.41, 33.26 24.46, 33.67 22.68 C34.09 20.91, 33.91 22.57, 34.03 18.79 C34.14 15, 34.32 3.13, 34.38 0 M0 0 C0 3.25, -0.06 15.18, 0 19.49 C0.06 23.81, -0.24 23.92, 0.35 25.87 C0.95 27.82, 2.36 29.65, 3.54 31.19 C4.73 32.73, 6.08 34.14, 7.44 35.09 C8.8 36.03, 9.98 36.33, 11.7 36.86 C13.41 37.39, 15.83 38.22, 17.72 38.28 C19.61 38.34, 21.44 37.81, 23.04 37.22 C24.63 36.63, 25.87 36.03, 27.29 34.74 C28.71 33.44, 30.48 31.43, 31.55 29.42 C32.61 27.41, 33.26 24.46, 33.67 22.68 C34.09 20.91, 33.91 22.57, 34.03 18.79 C34.14 15, 34.32 3.13, 34.38 0" stroke="#000000" stroke-width="2" fill="none"></path></g></g><mask></mask><g stroke-linecap="round"><g transform="translate(1436.0507370471669 79.67640651248325) rotate(0 9.92433181964148 -2.1266425327803518)"><path d="M0 0 C3.05 -1.26, 6.09 -2.52, 10.28 -4.25 M0 0 C2.26 -0.94, 4.53 -1.87, 10.28 -4.25 M10.28 -4.25 C13.97 -2.89, 17.66 -1.52, 19.85 -0.71 M10.28 -4.25 C12.77 -3.33, 15.26 -2.41, 19.85 -0.71" stroke="#000000" stroke-width="2" fill="none"></path></g></g><mask></mask><g stroke-linecap="round"><g transform="translate(1446.3295092889387 105.90499775010812) rotate(0 0 -15.240938151592331)"><path d="M0 0 C0 -12.17, 0 -24.34, 0 -30.48 M0 0 C0 -9.4, 0 -18.81, 0 -30.48" stroke="#000000" stroke-width="2" fill="none"></path></g></g><mask></mask><g stroke-linecap="round"><g transform="translate(1445.9750688668087 105.90499775010812) rotate(0 -4.784945698755706 -13.291515829876971)"><path d="M0 0 C-1.7 -0.45, -3.4 -0.91, -5.32 -1.42 M0 0 C-1.86 -0.5, -3.73 -0.99, -5.32 -1.42 M-5.32 -1.42 C-6.26 -2.43, -7.19 -3.45, -9.57 -6.03 M-5.32 -1.42 C-6.73 -2.95, -8.14 -4.47, -9.57 -6.03 M-9.57 -6.03 C-9.57 -10.52, -9.57 -15.02, -9.57 -26.58 M-9.57 -6.03 C-9.57 -13.73, -9.57 -21.43, -9.57 -26.58" stroke="#000000" stroke-width="2" fill="none"></path></g></g><mask></mask><g stroke-linecap="round"><g transform="translate(1446.5067295000035 106.08221796117255) rotate(0 4.784945698755706 -13.291515829876971)"><path d="M0 0 C1.46 -0.39, 2.92 -0.78, 5.32 -1.42 M0 0 C1.23 -0.33, 2.45 -0.65, 5.32 -1.42 M5.32 -1.42 C7.01 -3.26, 8.71 -5.09, 9.57 -6.03 M5.32 -1.42 C6.86 -3.09, 8.41 -4.77, 9.57 -6.03 M9.57 -6.03 C9.57 -14.19, 9.57 -22.36, 9.57 -26.58 M9.57 -6.03 C9.57 -10.64, 9.57 -15.25, 9.57 -26.58" stroke="#000000" stroke-width="2" fill="none"></path></g></g><mask></mask><g stroke-linecap="round" transform="translate(1640.7720731203258 291.1760869087857) rotate(0 36.82057659244418 68.7317429725623)"><path d="M0 0 C0 0, 0 0, 0 0 M0 0 C0 0, 0 0, 0 0 M0.13 12.04 C4.18 7.39, 8.23 2.73, 10.63 -0.03 M0.13 12.04 C2.48 9.34, 4.84 6.63, 10.63 -0.03 M0.27 24.08 C4.59 19.1, 8.92 14.13, 21.26 -0.07 M0.27 24.08 C5.4 18.18, 10.53 12.27, 21.26 -0.07 M-0.26 36.88 C10.32 24.72, 20.89 12.55, 31.89 -0.1 M-0.26 36.88 C11 23.92, 22.26 10.97, 31.89 -0.1 M-0.12 48.92 C11.85 35.15, 23.82 21.37, 42.52 -0.14 M-0.12 48.92 C12.86 33.99, 25.83 19.06, 42.52 -0.14 M0.01 60.96 C12.12 47.03, 24.23 33.1, 53.15 -0.17 M0.01 60.96 C14.86 43.88, 29.7 26.8, 53.15 -0.17 M0.14 73 C19.46 50.78, 38.78 28.55, 63.78 -0.21 M0.14 73 C17.9 52.57, 35.65 32.15, 63.78 -0.21 M0.28 85.04 C17.66 65.04, 35.05 45.04, 73.75 0.51 M0.28 85.04 C19.38 63.07, 38.48 41.09, 73.75 0.51 M-0.25 97.84 C20.47 74.01, 41.18 50.18, 73.89 12.55 M-0.25 97.84 C25.99 67.66, 52.22 37.48, 73.89 12.55 M-0.11 109.88 C17.37 89.76, 34.86 69.65, 74.02 24.59 M-0.11 109.88 C28.73 76.7, 57.57 43.52, 74.02 24.59 M0.02 121.92 C28.91 88.68, 57.81 55.44, 74.15 36.64 M0.02 121.92 C23.2 95.26, 46.37 68.59, 74.15 36.64 M0.15 133.96 C24.82 105.58, 49.5 77.2, 74.29 48.68 M0.15 133.96 C23.29 107.34, 46.43 80.72, 74.29 48.68 M7.5 137.7 C26.89 115.39, 46.29 93.08, 73.76 61.47 M7.5 137.7 C23.24 119.59, 38.98 101.48, 73.76 61.47 M18.13 137.66 C38.28 114.49, 58.42 91.32, 73.9 73.51 M18.13 137.66 C36.15 116.93, 54.17 96.21, 73.9 73.51 M28.76 137.63 C38.84 126.03, 48.92 114.44, 74.03 85.55 M28.76 137.63 C38.24 126.73, 47.71 115.83, 74.03 85.55 M38.74 138.35 C52.25 122.8, 65.77 107.25, 74.16 97.59 M38.74 138.35 C48.1 127.57, 57.47 116.8, 74.16 97.59 M49.37 138.31 C56.43 130.19, 63.5 122.06, 73.64 110.39 M49.37 138.31 C54.39 132.54, 59.41 126.76, 73.64 110.39 M60 138.28 C65.24 132.25, 70.49 126.21, 73.77 122.43 M60 138.28 C63.12 134.69, 66.24 131.09, 73.77 122.43 M70.63 138.25 C71.89 136.79, 73.15 135.34, 73.91 134.47 M70.63 138.25 C71.31 137.46, 71.99 136.68, 73.91 134.47 M-0.14 137.34 C-0.14 137.34, -0.14 137.34, -0.14 137.34 M-0.14 137.34 C-0.14 137.34, -0.14 137.34, -0.14 137.34 M11.9 137.21 C8.64 134.38, 5.38 131.54, -0.17 126.71 M11.9 137.21 C8.42 134.19, 4.95 131.16, -0.17 126.71 M24.7 137.73 C17.32 131.32, 9.94 124.91, -0.21 116.08 M24.7 137.73 C19.22 132.97, 13.74 128.21, -0.21 116.08 M36.74 137.6 C26.17 128.41, 15.6 119.23, -0.24 105.45 M36.74 137.6 C24.83 127.25, 12.92 116.9, -0.24 105.45 M48.78 137.47 C33.12 123.86, 17.47 110.25, -0.28 94.82 M48.78 137.47 C30.41 121.49, 12.03 105.52, -0.28 94.82 M60.82 137.33 C45.53 124.04, 30.24 110.75, -0.31 84.19 M60.82 137.33 C43.55 122.32, 26.28 107.3, -0.31 84.19 M72.86 137.2 C48.39 115.93, 23.92 94.66, -0.35 73.56 M72.86 137.2 C43.74 111.88, 14.61 86.57, -0.35 73.56 M74.34 127.88 C47.94 104.93, 21.54 81.98, 0.37 63.59 M74.34 127.88 C49.12 105.97, 23.91 84.05, 0.37 63.59 M74.3 117.25 C54.97 100.45, 35.64 83.64, 0.34 52.96 M74.3 117.25 C50.43 96.5, 26.57 75.76, 0.34 52.96 M74.27 106.62 C53.79 88.82, 33.32 71.02, 0.31 42.33 M74.27 106.62 C47.14 83.04, 20.02 59.47, 0.31 42.33 M74.23 95.99 C48.59 73.7, 22.94 51.4, 0.27 31.7 M74.23 95.99 C57.18 81.16, 40.12 66.34, 0.27 31.7 M74.2 85.36 C55.2 68.85, 36.2 52.33, 0.24 21.07 M74.2 85.36 C57.32 70.69, 40.44 56.01, 0.24 21.07 M74.16 74.73 C54.69 57.8, 35.22 40.87, 0.2 10.44 M74.16 74.73 C48.17 52.14, 22.18 29.54, 0.2 10.44 M74.13 64.1 C57.81 49.91, 41.48 35.72, 0.17 -0.19 M74.13 64.1 C52.54 45.33, 30.94 26.56, 0.17 -0.19 M74.09 53.47 C61.07 42.15, 48.05 30.83, 12.21 -0.33 M74.09 53.47 C51.61 33.92, 29.12 14.37, 12.21 -0.33 M74.06 42.84 C60.68 31.21, 47.3 19.58, 24.25 -0.46 M74.06 42.84 C57.98 28.86, 41.89 14.88, 24.25 -0.46 M74.03 32.21 C66.11 25.33, 58.19 18.44, 37.04 0.06 M74.03 32.21 C63.18 22.78, 52.33 13.36, 37.04 0.06 M73.99 21.58 C64.6 13.41, 55.2 5.25, 49.09 -0.07 M73.99 21.58 C64.41 13.25, 54.83 4.93, 49.09 -0.07 M73.96 10.95 C71.04 8.42, 68.13 5.89, 61.13 -0.2 M73.96 10.95 C71.18 8.54, 68.41 6.13, 61.13 -0.2 M73.92 0.32 C73.7 0.12, 73.47 -0.07, 73.17 -0.34 M73.92 0.32 C73.67 0.1, 73.41 -0.12, 73.17 -0.34" stroke="#ced4da" stroke-width="1" fill="none"></path><path d="M0 0 C27.26 0, 54.53 0, 73.64 0 M0 0 C27.8 0, 55.6 0, 73.64 0 M73.64 0 C73.64 52.51, 73.64 105.02, 73.64 137.46 M73.64 0 C73.64 31.3, 73.64 62.6, 73.64 137.46 M73.64 137.46 C46.81 137.46, 19.98 137.46, 0 137.46 M73.64 137.46 C50.05 137.46, 26.46 137.46, 0 137.46 M0 137.46 C0 100.32, 0 63.18, 0 0 M0 137.46 C0 109.92, 0 82.38, 0 0" stroke="#000000" stroke-width="2" fill="none"></path></g><g stroke-linecap="round"><g transform="translate(1649.6334228969852 306.383052869759) rotate(0 28.229108720873725 2.2737367544323206e-13)"><path d="M0 0 C9.41 0, 47.05 0, 56.46 0 M0 0 C9.41 0, 47.05 0, 56.46 0" stroke="#000000" stroke-width="2" fill="none"></path></g></g><mask></mask><g stroke-linecap="round"><g transform="translate(1649.3635409918952 319.0367637694187) rotate(0 28.229108720873725 2.2737367544323206e-13)"><path d="M0 0 C9.41 0, 47.05 0, 56.46 0 M0 0 C9.41 0, 47.05 0, 56.46 0" stroke="#000000" stroke-width="2" fill="none"></path></g></g><mask></mask><g stroke-linecap="round"><g transform="translate(1649.3025125057143 331.69047466908023) rotate(0 28.229108720873725 2.2737367544323206e-13)"><path d="M0 0 C9.41 0, 47.05 0, 56.46 0 M0 0 C9.41 0, 47.05 0, 56.46 0" stroke="#000000" stroke-width="2" fill="none"></path></g></g><mask></mask><g stroke-linecap="round"><g transform="translate(1649.3025125057143 344.34418556874107) rotate(0 28.229108720873725 2.2737367544323206e-13)"><path d="M0 0 C9.41 0, 47.05 0, 56.46 0 M0 0 C9.41 0, 47.05 0, 56.46 0" stroke="#000000" stroke-width="2" fill="none"></path></g></g><mask></mask><g transform="translate(1651.6993686729313 446.00939962523785) rotate(0 23.19712003544126 23.753850916291867)"><text x="23.19712003544125" y="0" font-family="Cascadia, Segoe UI Emoji" font-size="39.58975152715306px" fill="#343a40" text-anchor="middle" style="white-space: pre;" direction="ltr" dominant-baseline="text-before-edge">VM</text></g><g stroke-linecap="round" transform="translate(886.973950595207 195.12649862074795) rotate(0 508.97566514596093 195.60890257042217)"><path d="M32 0 C399.99 1.32, 767.51 0.41, 985.95 0 M985.95 0 C1007.42 0.73, 1016.81 12.23, 1017.95 32 M1017.95 32 C1018.26 147.54, 1017.78 265.68, 1017.95 359.22 M1017.95 359.22 C1016.82 381.13, 1007.27 390.85, 985.95 391.22 M985.95 391.22 C720.89 390.64, 456.21 390.72, 32 391.22 M32 391.22 C12.24 392.25, -1.03 382.05, 0 359.22 M0 359.22 C-0.39 241.29, 0.79 122.07, 0 32 M0 32 C0.48 12.15, 12.19 -0.38, 32 0" stroke="#343a40" stroke-width="2.5" fill="none" stroke-dasharray="1.5 8"></path></g><g transform="translate(944.0383326850109 215.61581318437175) rotate(0 150.78128023036817 23.753850916291867)"><text x="150.78128023036814" y="0" font-family="Cascadia, Segoe UI Emoji" font-size="39.58975152715306px" fill="#343a40" text-anchor="middle" style="white-space: pre;" direction="ltr" dominant-baseline="text-before-edge">public subnet</text></g><g stroke-linecap="round" transform="translate(1010.0179039637603 304.8571753627691) rotate(0 181.890416436578 79.85987777312766)"><path d="M32 0 C135.43 0.83, 236.96 -0.5, 331.78 0 M331.78 0 C351.92 1.13, 363.51 11.77, 363.78 32 M363.78 32 C363.64 62.25, 365.98 92.08, 363.78 127.72 M363.78 127.72 C364.45 149.95, 351.57 158.75, 331.78 159.72 M331.78 159.72 C217.31 161.1, 103.83 159.81, 32 159.72 M32 159.72 C10.49 159.96, -1.56 149, 0 127.72 M0 127.72 C1.83 94.55, 2.2 64.21, 0 32 M0 32 C1.26 9.3, 11.16 0.22, 32 0" stroke="#343a40" stroke-width="2.5" fill="none" stroke-dasharray="1.5 8"></path></g><g transform="translate(1045.1438691317337 358.40701165998416) rotate(0 149.22236303806466 21.829099964425495)"><text x="149.22236303806466" y="0" font-family="Cascadia, Segoe UI Emoji" font-size="36.381833274042435px" fill="#343a40" text-anchor="middle" style="white-space: pre;" direction="ltr" dominant-baseline="text-before-edge">Security Rules</text></g><g stroke-linecap="round"><g transform="translate(1390.8508088310791 390.9594674087896) rotate(0 117.49510627532604 0.7910538395899493)"><path d="M0.35 -0.91 C39.79 -0.88, 197.16 0.7, 236.14 1.28 M-0.93 1.23 C38.51 1.96, 196.18 2.74, 235.79 2.66" stroke="#343a40" stroke-width="2" fill="none"></path></g><g transform="translate(1390.8508088310791 390.9594674087896) rotate(0 117.49510627532604 0.7910538395899493)"><path d="M212.28 11.16 C216.68 10.84, 223.69 5.49, 235.79 2.66 M212.28 11.16 C220.77 8.33, 230.19 4.89, 235.79 2.66" stroke="#343a40" stroke-width="2" fill="none"></path></g><g transform="translate(1390.8508088310791 390.9594674087896) rotate(0 117.49510627532604 0.7910538395899493)"><path d="M212.32 -5.94 C216.87 -1.91, 223.87 -2.89, 235.79 2.66 M212.32 -5.94 C220.69 -2.21, 230.1 0.92, 235.79 2.66" stroke="#343a40" stroke-width="2" fill="none"></path></g></g><mask></mask><g stroke-linecap="round"><g transform="translate(702.099183505831 372.67355190055355) rotate(0 77.89762378168336 -1.8254400056662234)"><path d="M-0.74 0.02 C25.3 -0.67, 129.6 -3.85, 155.8 -4.54 M1.07 -1.01 C26.99 -1.55, 129.02 -3.13, 154.86 -3.46" stroke="#343a40" stroke-width="2" fill="none"></path></g><g transform="translate(702.099183505831 372.67355190055355) rotate(0 77.89762378168336 -1.8254400056662234)"><path d="M131.49 5.43 C137.71 3.25, 142.34 2.06, 154.86 -3.46 M131.49 5.43 C137.91 3.34, 144.78 1.31, 154.86 -3.46" stroke="#343a40" stroke-width="2" fill="none"></path></g><g transform="translate(702.099183505831 372.67355190055355) rotate(0 77.89762378168336 -1.8254400056662234)"><path d="M131.25 -11.67 C137.47 -9.35, 142.17 -6.04, 154.86 -3.46 M131.25 -11.67 C137.77 -9.24, 144.71 -6.76, 154.86 -3.46" stroke="#343a40" stroke-width="2" fill="none"></path></g></g><mask></mask><g stroke-linecap="round"><g transform="translate(194.6627154552598 262.6561924158991) rotate(0 176.25252919317097 47.95231511685813)"><path d="M-0.56 1.16 C57.93 17.21, 293.38 80.52, 352.07 96.16 M1.35 0.72 C59.54 16.4, 292.12 78.31, 350.89 94.18" stroke="#343a40" stroke-width="2" fill="none"></path></g><g transform="translate(194.6627154552598 262.6561924158991) rotate(0 176.25252919317097 47.95231511685813)"><path d="M325.98 96.36 C337.76 94.88, 346.1 93.15, 350.89 94.18 M325.98 96.36 C332.31 95.42, 337.99 94.97, 350.89 94.18" stroke="#343a40" stroke-width="2" fill="none"></path></g><g transform="translate(194.6627154552598 262.6561924158991) rotate(0 176.25252919317097 47.95231511685813)"><path d="M330.41 79.84 C340.42 84.87, 347.01 89.66, 350.89 94.18 M330.41 79.84 C335.79 82.66, 340.47 85.98, 350.89 94.18" stroke="#343a40" stroke-width="2" fill="none"></path></g></g><mask></mask><g stroke-linecap="round"><g transform="translate(193.7916559501266 500.52394761543405) rotate(0 176.37486901130762 -56.18823167382038)"><path d="M0.04 1.17 C58.61 -17.36, 293.52 -93.05, 352.12 -111.86 M-1.4 0.73 C57.51 -18.1, 295.28 -94.64, 354.51 -113.72" stroke="#343a40" stroke-width="2" fill="none"></path></g><g transform="translate(193.7916559501266 500.52394761543405) rotate(0 176.37486901130762 -56.18823167382038)"><path d="M334.77 -98.38 C343.9 -104.95, 349.9 -111.25, 354.51 -113.72 M334.77 -98.38 C341.8 -103.17, 348.68 -109.52, 354.51 -113.72" stroke="#343a40" stroke-width="2" fill="none"></path></g><g transform="translate(193.7916559501266 500.52394761543405) rotate(0 176.37486901130762 -56.18823167382038)"><path d="M329.52 -114.66 C340.45 -115.37, 348.34 -115.83, 354.51 -113.72 M329.52 -114.66 C338.49 -113.62, 347.22 -114.21, 354.51 -113.72" stroke="#343a40" stroke-width="2" fill="none"></path></g></g><mask></mask></svg>